<?xml version="1.0" encoding="UTF-8"?>
<svg version="1.1" viewBox="0 0 1200 1200" width="1280" height="1280" xmlns="http://www.w3.org/2000/svg">
<path transform="translate(0)" d="m0 0h1200v1200h-1200z" fill="#F86F54"/>
<path transform="translate(507,281)" d="m0 0h186v290l-9-3h-11l-9 4-5 3-6 9-2 6v12l3 9-8 7-3 3-8-11-7-5 2-4 4-9 1-4v-12l-4-12-7-9-10-6-6-2h-16l-10 4-8 6-6 9-3 9v13l4 11 3 6-8 6-7 10-5-5-6-5 3-10v-10l-3-9-8-9-8-4-3-1h-11l-9 3z" fill="#FFFFFE"/>
<path transform="translate(595,553)" d="m0 0h10l9 3 10 9 4 9v14l-3 8-7 8-2 2 8 4 9 8 6 10 4 13 3-10 6-9 8-7 5-3-4-4-3-6v-12l4-8 6-5 4-2h13l8 4 4 5 3 7v10l-4 8-3 4 8 5 5 4 6 10 2 6 1 23 4-11 6-8 8-6 4-1-6-8-2-6v-7l4-10 7-6 6-2h9l9 4 5 6 3 8-1 10-4 7-3 4 6 2 8 7 6 10 2 8v48h-372v-49l4-11 6-8 8-6 4-1-6-8-2-7 1-10 5-8 5-4 6-2h9l9 4 5 6 3 8-1 10-4 7-3 4 6 2 8 7 6 10 2 8 1-24 4-10 7-9 10-6-6-9-1-3v-10l5-10 7-5 3-1h13l8 5 4 5 2 5v12l-5 8-2 2 11 8 7 9 4 12 3-12 7-11 9-8 8-4-7-7-4-7-1-4v-14l5-10 9-8z" fill="#FFFFFE"/>
<path transform="translate(701,417)" d="m0 0h114v293h-21l-1-46-3-13-6-10-8-8 2-9v-13l-4-9-6-7-10-5h-15l-10 5-7 8-3 7v15l2 5-1 4-3 2-8-16-9-9 3-12-1-11-5-10z" fill="#FFFFFE"/>
<path transform="translate(385,417)" d="m0 0h114v161l-5 10-1 4v7l3 12-9 9-6 11-2 5-4-3 2-9v-13l-3-8-7-8-10-5h-15l-10 5-7 8-3 7v15l2 5-1 4-8 8-6 12-2 8-1 48h-21z" fill="#FFFFFE"/>
<path transform="translate(557,316)" d="m0 0h86v58h-86z" fill="#F86F54"/>
<path transform="translate(503,808)" d="m0 0h36l9 3 7 8 4 11 1 6v17l-4 13-7 9-7 5-7 2h-32v-7l5-1 1-2v-54l-2-2-4-1z" fill="#FFFFFE"/>
<path transform="translate(643,808)" d="m0 0h37l10 3 6 7 2 7-1 11-4 6-3 4 4 5 3 16v2h3l1-12h6v15l-3 8-5 3-9-1-5-6-3-14-3-11-16-1 1 17 2 6 6 3v6h-29v-7l5-1 2-5v-47l-2-6-5-1z" fill="#FFFFFE"/>
<path transform="translate(433,808)" d="m0 0h26l5 12 10 27v-28l-2-3-4-1v-7h22v6l-5 2-2 5-1 61h-13l-9-24-11-31v44l2 3 3 1v7h-21v-6l6-3 1-3v-50l-2-4-5-2z" fill="#FFFFFE"/>
<path transform="translate(596,807)" d="m0 0h7l9 3h4l1-2h8v34h-12l-3-16-4-8-5-3-7 1-2 8v38l3 9 3 3 7 1 5-3 2-5v-7l-1-2-4-1v-9h23v9l-6 2-1 23h-6l-5-1-7 2h-8l-9-3-6-5-4-8-2-7v-32l4-10 5-6 7-4z" fill="#FFFFFE"/>
<path transform="translate(744,808)" d="m0 0h11l7 26 9 34 3 5 4 2v7h-28v-7l5-1v-16l-15 1-1 11 2 4 4 2v6h-25v-7l5-1 2-5 7-24z" fill="#FFFFFE"/>
<path transform="translate(848,808)" d="m0 0h45v25h-7l-1-10-4-6-2-1h-7l-3 3-1 20h11v8h-11l1 23 4 4 8-1 3-3 1-2 1-12h7v26h-45v-7l5-2 1-2v-52l-2-3-4-1z" fill="#FFFFFE"/>
<path transform="translate(373,808)" d="m0 0h45v25h-7l-1-10-4-6-2-1h-7l-3 3-1 20h11v8h-11l1 23 4 4 8-1 3-3 1-2 1-12h7v26h-45v-7l5-2 1-2v-52l-2-3-4-1z" fill="#FFFFFE"/>
<path transform="translate(729,445)" d="m0 0h14l1 1v114h-15z" fill="#F86F54"/>
<path transform="translate(457,445)" d="m0 0h14v115h-15v-114z" fill="#F86F54"/>
<path transform="translate(784,808)" d="m0 0h50v29h-6l-2-15-2-4-5-1-2 3v54l6 1v7h-28v-6l6-3 1-3v-47l-1-6h-7l-2 6-1 14h-7z" fill="#FFFFFE"/>
<path transform="translate(305,808)" d="m0 0h28v6l-6 3v7l7 35 1 2 10-37v-7l-6-2v-7h22v7l-5 2-5 16-13 47-1 2h-12l-3-12-9-47-2-7-6-1z" fill="#FFFFFE"/>
<path transform="translate(765,445)" d="m0 0h14v115h-14z" fill="#F86F54"/>
<path transform="translate(421,445)" d="m0 0h14v115h-14z" fill="#F86F54"/>
<path transform="translate(526,816)" d="m0 0h12l4 4 2 7 1 9v14l-3 14-3 6-5 4h-8l-3-4v-50l1-3z" fill="#F86F54"/>
<path transform="translate(666,818)" d="m0 0h13l5 6v9l-5 6h-16v-16z" fill="#F86F54"/>
<path transform="translate(650,481)" d="m0 0h15v14l-1 1h-14z" fill="#F86F54"/>
<path transform="translate(621,481)" d="m0 0h15v15h-14l-1-1z" fill="#F86F54"/>
<path transform="translate(564,481)" d="m0 0h15v14l-1 1h-14z" fill="#F86F54"/>
<path transform="translate(535,481)" d="m0 0h15v15h-14l-1-1z" fill="#F86F54"/>
<path transform="translate(650,452)" d="m0 0h14l1 1v14h-15z" fill="#F86F54"/>
<path transform="translate(622,452)" d="m0 0h14v15h-15v-14z" fill="#F86F54"/>
<path transform="translate(564,452)" d="m0 0h14l1 1v14h-15z" fill="#F86F54"/>
<path transform="translate(536,452)" d="m0 0h14v15h-15v-14z" fill="#F86F54"/>
<path transform="translate(621,395)" d="m0 0h15v15h-14l-1-1z" fill="#F86F54"/>
<path transform="translate(564,395)" d="m0 0h15v14l-1 1h-14z" fill="#F86F54"/>
<path transform="translate(633,943)" d="m0 0 5 1 2 4v25l-4 5-6 1-5-4v-5l2 3 3 3h5l2-3 2-17-4 2-7-1-1-2v-6l4-5z" fill="#FFFFFE"/>
<path transform="translate(369,943)" d="m0 0 5 1 2 4v25l-4 5-6 1-5-4v-5l2 3 3 3h5l2-3 2-17-4 2-7-1-1-2v-6l4-5z" fill="#FFFFFE"/>
<path transform="translate(650,510)" d="m0 0h15v14h-15z" fill="#F86F54"/>
<path transform="translate(621,510)" d="m0 0h15v14h-15z" fill="#F86F54"/>
<path transform="translate(564,510)" d="m0 0h15v14h-15z" fill="#F86F54"/>
<path transform="translate(535,510)" d="m0 0h15v14h-15z" fill="#F86F54"/>
<path transform="translate(593,481)" d="m0 0h14v15h-14z" fill="#F86F54"/>
<path transform="translate(593,452)" d="m0 0h14v15h-14z" fill="#F86F54"/>
<path transform="translate(650,424)" d="m0 0h15v14h-15z" fill="#F86F54"/>
<path transform="translate(621,424)" d="m0 0h15v14h-15z" fill="#F86F54"/>
<path transform="translate(564,424)" d="m0 0h15v14h-15z" fill="#F86F54"/>
<path transform="translate(535,424)" d="m0 0h15v14h-15z" fill="#F86F54"/>
<path transform="translate(593,395)" d="m0 0h14v15h-14z" fill="#F86F54"/>
<path transform="translate(593,510)" d="m0 0h14v14h-14z" fill="#F86F54"/>
<path transform="translate(593,424)" d="m0 0h14v14h-14z" fill="#F86F54"/>
<path transform="translate(687,942)" d="m0 0 2 2 2 10v13l-3 10-3 2-7-1-4-4 1-3 5 5h5l3-7v-12l-4 2-7-1-4-7-1-7 2-1 3 11 2 2 7-1 2-4z" fill="#FFFFFE"/>
<path transform="translate(831,931)" d="m0 0 2 3 4 21v3h-2l-2-3-5 4-5 1-4-4-1-7 3-6 6-1 5 3zm-8 13-3 3v7l3 4 6-1 4-5-1-5-4-3z" fill="#FFFFFE"/>
<path transform="translate(512,932)" d="m0 0 2 4 4 22-3-1-1-3-7 6-5-1-3-4v-8l4-5 7 1 3 1-1-5zm-9 12-3 5 1 7 2 2 6-1 4-4 1-4-4-4z" fill="#FFFFFE"/>
<path transform="translate(610,940)" d="m0 0 6 1 4 5 2 5v5l-7-5h-7l-1 4v2h15l-2 2-9 1-5-2-2-2 1-6 4-2 8 1 2 1-2-6-7-1-3-1z" fill="#FFFFFE"/>
<path transform="translate(549,943)" d="m0 0 6 1 3 5v10l-2 1v-7l-1-7h-6l-4 3 1 8h-2l-4-10h-6v12h-2l-1-14 8-1 4 3z" fill="#FFFFFE"/>
<path transform="translate(399,940)" d="m0 0 6 1 4 5 2 9-2 1-5-5h-7l-1 5 2 1h13l-2 2-9 1-6-2-1-7 4-3 9 1v-3l-3-3h-7z" fill="#FFFFFE"/>
<path transform="translate(568,940)" d="m0 0 6 1 5 6 1 9-5-4-2-1h-8l1 5 1 1h13l-2 2-9 1-6-3-1-5 3-3 7-1 5 2-3-6-6-1h-2v-2z" fill="#FFFFFE"/>
<path transform="translate(462,940)" d="m0 0 6 1 5 6 1 9-5-4-2-1h-8l1 5 1 1h13l-2 2-9 1-6-3-1-5 3-3 7-1 5 2-3-6-6-1h-2v-2z" fill="#FFFFFE"/>
<path transform="translate(747,830)" d="m0 0h2l3 14v4h-9l1-7z" fill="#F86F54"/>
<path transform="translate(879,942)" d="m0 0 7 1 1 5-2-1-1-2h-7v4l12 2 1 1v6l-4 2-9-1-3-3h3l2 1h8v-4l-11-3-1-1v-5z" fill="#FFFFFE"/>
<path transform="translate(633,945)" d="m0 0h4l1 2v7l-2 2h-6l-1-1v-6z" fill="#F86F54"/>
<path transform="translate(369,945)" d="m0 0h4l1 2v7l-2 2h-6l-1-1v-6z" fill="#F86F54"/>
<path transform="translate(350,942)" d="m0 0 6 1 1 2v6l-4 2-6-1v-1l7-1 1-4-5-1-3 2v8l3 2h9l-1 2-7 1-6-3-1-2v-7l4-5z" fill="#FFFFFE"/>
<path transform="translate(786,942)" d="m0 0 5 1 2 2v5l-4 3-6-1v-1l7-1 1-3-1-2-6 1-2 3 1 6 2 2h10l-1 2-8 1-6-4v-9l4-4z" fill="#FFFFFE"/>
<path transform="translate(703,944)" d="m0 0 7 1 3 3v7l-4 4-7 1-4-2-2-4 1-7zm-1 2-5 5 2 5 2 2h6l4-3v-7l-2-2z" fill="#FFFFFE"/>
<path transform="translate(650,942)" d="m0 0 6 1 1 1v7l-4 2-5-1v-1l7-1v-5l-7 1-1 2v6l3 3h9l-3 3-8-1-4-4 1-9z" fill="#FFFFFE"/>
<path transform="translate(434,942)" d="m0 0 6 1 1 1v7l-4 2-5-1v-1l7-1v-5l-7 1-1 2v6l3 3h9l-3 3-8-1-4-4 1-9z" fill="#FFFFFE"/>
<path transform="translate(847,944)" d="m0 0 7 1 3 3v8l-6 4-7-1-4-5 1-6 3-3zm-1 2-4 3v6l3 3h7l4-5-1-5-2-2z" fill="#FFFFFE"/>
<path transform="translate(719,942)" d="m0 0 1 2 1 9 2 3h5l2-2 1-10 2-1 2 12 1 5-3-3-1-2-5 4-5-1-3-3-1-3v-9z" fill="#FFFFFE"/>
<path transform="translate(804,942)" d="m0 0 6 1 3 4 1 4v8l-2 1-1-11-3-4h-5l-2 2v13l-2-2-1-5v-9l4-1z" fill="#FFFFFE"/>
<path transform="translate(334,935)" d="m0 0 2 1v8h5v2h-5v14l-2-2v-12l-5-1v-1h5z" fill="#FFFFFE"/>
<path transform="translate(418,935)" d="m0 0 2 1v8h5v2h-5v13l-2-3v-10h-4v-2h4z" fill="#FFFFFE"/>
<path transform="translate(591,942)" d="m0 0 5 1 3 3 1 3v11h-1l-2-12-2-3-7 1-1 2v11l-2-3-1-12 4-1z" fill="#FFFFFE"/>
<path transform="translate(485,942)" d="m0 0 5 1 3 3 1 3v11h-1l-2-12-2-3-7 1-1 2v11l-2-3-1-12 4-1z" fill="#FFFFFE"/>
<path transform="translate(317,942)" d="m0 0 5 1 3 3 1 3v11h-1l-2-12-2-3-7 1-1 2v11l-2-3-1-12 4-1z" fill="#FFFFFE"/>
<path transform="translate(762,944)" d="m0 0 3 4 4 8 5-11h2l-3 10-3 5-4-4-5-11z" fill="#FFFFFE"/>
<path transform="translate(745,942)" d="m0 0 5 1v1l-6 2-1 6 2 7-2 1-3-10v-6h3z" fill="#FFFFFE"/>
<path transform="translate(861,944)" d="m0 0h2l2 10 1 6-3-3-2-9z" fill="#FFFFFE"/>
<path transform="translate(380,944)" d="m0 0h2l2 10 1 6-3-3-2-9z" fill="#FFFFFE"/>
<path transform="translate(896,952)" d="m0 0 3 1 1 4-2 3-3-1v-6z" fill="#FFFFFE"/>
</svg>
